<svg width="300" height="84" viewBox="0 0 300 84" fill="none" xmlns="http://www.w3.org/2000/svg">
<path d="M9.66 30.2H0.6V23H26.88V30.2H17.82V65H9.66V30.2ZM97.1273 65L85.9073 41.78L85.6073 41.9L85.9673 48.98V65H78.4073V23H84.4673L95.5073 47.12L95.8073 47L95.1473 39.62V23H102.707V65H97.1273ZM126.346 65L125.086 58.34H115.606L114.346 65H106.186L114.286 23H126.706L134.386 65H126.346ZM120.226 30.8L117.886 44.78L116.566 51.92H124.066L122.686 44.78L120.346 30.8H120.226ZM157.214 65H144.494C141.614 62.36 139.514 59.22 138.194 55.58C136.874 51.94 136.214 48.14 136.214 44.18C136.214 40.18 137.014 36.24 138.614 32.36C140.214 28.48 142.454 25.36 145.334 23H159.914V30.2H148.754C147.714 31.4 146.814 33.3 146.054 35.9C145.294 38.46 144.914 41.2 144.914 44.12C144.914 47 145.254 49.76 145.934 52.4C146.654 55 147.534 56.88 148.574 58.04H154.334V41.72H162.254V51.8C162.254 57.32 160.574 61.72 157.214 65ZM175.163 65H166.943V23H175.163V39.92H184.763V23H192.983V65H184.763V47.6H175.163V65ZM197.379 51.14V44.3H209.739V51.14H197.379ZM233.67 23C236.47 25.28 238.55 28.34 239.91 32.18C241.27 36.02 241.95 39.98 241.95 44.06C241.95 48.1 241.29 51.94 239.97 55.58C238.65 59.22 236.55 62.36 233.67 65H221.31C218.43 62.36 216.33 59.22 215.01 55.58C213.69 51.94 213.03 48.1 213.03 44.06C213.03 39.98 213.71 36.02 215.07 32.18C216.43 28.34 218.51 25.28 221.31 23H233.67ZM225.33 58.04H229.65C230.65 56.88 231.49 55 232.17 52.4C232.89 49.76 233.25 46.98 233.25 44.06C233.25 41.14 232.91 38.4 232.23 35.84C231.55 33.24 230.71 31.36 229.71 30.2H225.33C224.33 31.36 223.47 33.24 222.75 35.84C222.07 38.4 221.73 41.14 221.73 44.06C221.73 46.98 222.07 49.76 222.75 52.4C223.47 55 224.33 56.88 225.33 58.04ZM258.27 58.04H268.83V65H253.59C250.95 62.52 248.95 59.38 247.59 55.58C246.23 51.78 245.55 47.88 245.55 43.88C245.55 39.84 246.31 35.96 247.83 32.24C249.35 28.52 251.61 25.44 254.61 23H268.83V30.2H258.27C257.19 31.44 256.25 33.44 255.45 36.2C254.69 38.96 254.31 41.6 254.31 44.12C254.31 46.64 254.69 49.28 255.45 52.04C256.25 54.8 257.19 56.8 258.27 58.04ZM273.232 23H289.192C291.712 23.84 293.852 25.4 295.612 27.68C297.412 29.92 298.312 32.68 298.312 35.96C298.312 41.32 296.192 45.26 291.952 47.78L298.012 65H289.612L284.512 49.7H281.332V65H273.232V23ZM281.332 30.2V42.98H286.492C287.172 42.82 287.912 42.14 288.712 40.94C289.552 39.7 289.972 38.26 289.972 36.62C289.972 34.98 289.612 33.54 288.892 32.3C288.212 31.06 287.532 30.36 286.852 30.2H281.332Z" fill="url(#paint0_linear_49_26)"/>
<path d="M8 11H34.3575" stroke="#2490F4" stroke-width="5" stroke-linecap="round"/>
<path d="M39.1407 38.8206H65.4983" stroke="#2490F4" stroke-width="5" stroke-linecap="round"/>
<path d="M68.6425 11H95" stroke="#2490F4" stroke-width="5" stroke-linecap="round"/>
<path d="M34.946 11.5267V72.7293" stroke="#2490F4" stroke-width="5" stroke-linecap="round"/>
<path d="M68.6425 72.9976V11.7949" stroke="#2490F4" stroke-width="5" stroke-linecap="round"/>
<path d="M69 73H95" stroke="#2490F4" stroke-width="5" stroke-linecap="round"/>
<path d="M8 73H34" stroke="#2490F4" stroke-width="5" stroke-linecap="round"/>
<defs>
<linearGradient id="paint0_linear_49_26" x1="13" y1="42" x2="300" y2="42" gradientUnits="userSpaceOnUse">
<stop stop-color="#0F1F3F"/>
<stop offset="0.485" stop-color="#2490F4" stop-opacity="0.75"/>
<stop offset="1" stop-color="#0F1F3F"/>
</linearGradient>
</defs>
</svg>
