<svg width="18" height="14" viewBox="0 0 18 14" fill="none" xmlns="http://www.w3.org/2000/svg">
<path d="M18 0.75L0 0.75L0 4.91667H18V0.75Z" fill="#017AF2"/>
<path d="M18 4.91666H0L0 9.08333H18V4.91666Z" fill="#00AD50"/>
<path d="M18 9.08334H0L0 13.25H18V9.08334Z" fill="#F2CD00"/>
<path d="M8.59351 10.7008L9.16261 11.3275L9.32521 2.79103L9.00001 2.43534L8.59351 10.7008Z" fill="#E10600"/>
<path d="M13.1463 11.4969L14.2357 11.0057C12.1382 8.83771 10.9349 8.04165 8.95122 7.99084C6.43092 8.17715 4.78866 9.22727 4.08948 11.3106L4.57727 11.209C6.57726 8.63447 7.71545 8.9224 8.98373 8.76997C10.3333 8.82078 11.7154 9.7354 13.1463 11.4969Z" fill="#E10600"/>
<path d="M5.7968 2.68941L4.75616 2.97735C5.76428 4.84047 7.21142 5.97529 9.06506 6.05997C11.5203 6.07691 12.9349 4.34929 13.9105 2.79104L13.0813 3.0451C11.5041 5.36554 9.79676 5.45023 9.03254 5.33166C7.748 5.23004 6.6911 4.1291 5.7968 2.68941Z" fill="#E10600"/>
</svg>
